# xmcd CD database file
#
# Track frame offsets:
#	150
#	20960
#	37757
#	49320
#	72685
#	86827
#	96325
#	113552
#	125090
#	140110
#	155620
#	170267
#	187177
#	201972
#	216565
#	230022
#	248777
#	260395
#	270212
#
# Disc length: 3845 seconds
#
# Revision: 0
# Processed by: cddbd v1.5.1PL0 Copyright (c) Steve Scherf et al.
# Submitted via: CDex 1.51
#
DISCID=290f0313
DTITLE=Rob Rio - Back to LA
DYEAR=2003
DGENRE=Blues
TTITLE0=My Sweet Ivory
TTITLE1=Alley Boogie
TTITLE2=Basin St. Boogie
TTITLE3=Goin Down Slow
TTITLE4=Roll 'em Pete
TTITLE5=Kaycee Boogie
TTITLE6=Back to LA
TTITLE7=Creole Song
TTITLE8=Gee, Baby, ain't I Good to You
TTITLE9=Fire it Up
TTITLE10=Dive Bomber
TTITLE11=Itchy Woman Blues
TTITLE12=Stoop Down, Baby
TTITLE13=Ode to Hook
TTITLE14=Cuttin' the Boogie
TTITLE15=En Venezuela
TTITLE16=Breaktime
TTITLE17=R.G. Stomp
TTITLE18=Boogie Woogie Stomp
EXTD=YEAR: 2003
EXTT0=
EXTT1=
EXTT2=
EXTT3=
EXTT4=
EXTT5=
EXTT6=
EXTT7=
EXTT8=
EXTT9=
EXTT10=
EXTT11=
EXTT12=
EXTT13=
EXTT14=
EXTT15=
EXTT16=
EXTT17=
EXTT18=
PLAYORDER=
